<svg xmlns="http://www.w3.org/2000/svg" viewBox="0 0 431.35 93.48"><defs><style>.cls-1{fill:#332f2e;}.cls-2{fill:#23ca4b;}</style></defs><title>v4_fullLogo_checkgreenonly</title><g id="Layer_2" data-name="Layer 2"><path class="cls-1" d="M200.61,49.3h8.14l2.77,6.75H200.61V79.73a9.2,9.2,0,0,0,1.57,5.69A5.64,5.64,0,0,0,207,87.51a13,13,0,0,0,4.35-1l2.31,6.75a17.7,17.7,0,0,1-3.56,1.34,15.19,15.19,0,0,1-4,.6q-6.67,0-10.5-3.65t-3.84-10.41V56.05h-6.29l-.1-6.75h6.39V38.1l8.88-2Z" transform="translate(-25.42 -14.77)"/><path class="cls-1" d="M237.89,47.54q9.71,0,14.66,6.52t4.95,16.7v2.41H225.68q.56,6.57,4.21,10.36t10.87,3.79a19.37,19.37,0,0,0,6.15-.88,70.78,70.78,0,0,0,7.35-3.1L257,89.82a31.33,31.33,0,0,1-16.28,4.9q-11.76,0-18-6.38t-6.29-17.21A27.87,27.87,0,0,1,219,58.83a19.38,19.38,0,0,1,7.44-8.33A21.57,21.57,0,0,1,237.89,47.54Zm-.28,7.59a10.57,10.57,0,0,0-8.09,3.19,14.94,14.94,0,0,0-3.66,8.83h23Q247.13,55.14,237.61,55.13Z" transform="translate(-25.42 -14.77)"/><path class="cls-1" d="M280.81,58.23a35.66,35.66,0,0,0-7.95,5.69V93.61H264V48.74h5l2.87,7.31a42.17,42.17,0,0,1,7.45-5,16.48,16.48,0,0,1,7.54-2.32l1.94,7.13A17.27,17.27,0,0,0,280.81,58.23Z" transform="translate(-25.42 -14.77)"/><path class="cls-1" d="M330.68,48.74l-17,44.87h-8.23L288.77,50.22l8.51-3.14,12.4,34,11.84-32.38Z" transform="translate(-25.42 -14.77)"/><path class="cls-1" d="M344.28,48.74V93.61h-9V48.74Z" transform="translate(-25.42 -14.77)"/><path class="cls-1" d="M372.21,47.54q9.72,0,14.67,6.52t4.95,16.7v2.41H360q.56,6.57,4.21,10.36t10.87,3.79a19.33,19.33,0,0,0,6.15-.88,71.68,71.68,0,0,0,7.36-3.1l2.77,6.48a31.28,31.28,0,0,1-16.28,4.9q-11.74,0-18-6.38t-6.29-17.21a27.87,27.87,0,0,1,2.59-12.3,19.4,19.4,0,0,1,7.45-8.33A21.54,21.54,0,0,1,372.21,47.54Zm-.27,7.59a10.57,10.57,0,0,0-8.1,3.19,15,15,0,0,0-3.65,8.83h23Q381.47,55.14,371.94,55.13Z" transform="translate(-25.42 -14.77)"/><path class="cls-1" d="M456.77,48.74l-14,44.87h-8.14l-9.9-31.92-9.34,31.92h-8.14l-13.6-43.29,8.51-3.15,9.25,33.21,8.79-31.64h9.34l9.25,31.64,8.79-31.64Z" transform="translate(-25.42 -14.77)"/><path class="cls-1" d="M157.88,60q-3.88,0-10.54,3.89V94.46H132.81V49.59h9l2.49,4.72a39.1,39.1,0,0,1,8.84-4.49,26.69,26.69,0,0,1,9-1.71q8.33,0,12.07,4.77t3.75,13V94.46H163.43V67a8.55,8.55,0,0,0-1.38-5.13A4.86,4.86,0,0,0,157.88,60Z" transform="translate(-25.42 -14.77)"/></g><g id="Layer_4" data-name="Layer 4"><path class="cls-1" d="M120.14,34.15a6.26,6.26,0,0,1-1.62,4.71,6.56,6.56,0,1,1-9.88-8.62A6.28,6.28,0,0,1,113.1,28a6.62,6.62,0,0,1,7,6.16Z" transform="translate(-25.42 -14.77)"/><path class="cls-1" d="M105.35,91.88" transform="translate(-25.42 -14.77)"/><path class="cls-1" d="M346.26,34.64a6.25,6.25,0,0,1-2,4.61,6.65,6.65,0,0,1-9.39,0,6.29,6.29,0,0,1-2-4.62A6.68,6.68,0,0,1,339.57,28,6.48,6.48,0,0,1,344.31,30,6.35,6.35,0,0,1,346.26,34.64Z" transform="translate(-25.42 -14.77)"/></g><g id="Layer_3" data-name="Layer 3"><path class="cls-1" d="M59,67,49,94H37L25.42,50.46,39.3,47.23l5.25,27.71L54,51" transform="translate(-25.42 -14.77)"/><polyline class="cls-1" points="26.58 35.23 18.94 60.34 30.38 45.82 29.58 36.23 27.58 36.23"/><path class="cls-2" d="M52,50H67l7.7,24.19L84.83,15.74l17.75-1L82,94H69" transform="translate(-25.42 -14.77)"/></g><g id="Layer_5" data-name="Layer 5"><g id="ILcz48.tif"><path class="cls-1" d="M113.08,46.6c2.24.1,5.83-1.49,6.94-1.5.1,0,.4,0,.49.16s0,.26-.15.54c-1.22,2.36-2.4,4.73-3.62,7.09a2.18,2.18,0,0,0-.24,1.43q2.64,16,5.24,31.94l1.08,6.67a1.28,1.28,0,0,1-.21,1.18q-5.92,6.9-11.84,13.81c-.4.48-.6.43-.94,0q-5.26-7.43-10.56-14.81A1.16,1.16,0,0,1,99.15,92L105,69.08,108.9,54a2,2,0,0,0-.08-1.37c-1-2.45-2-4.92-3-7.38-.16-.4-.23-.61-.16-.71s.42-.13.64-.09C107.85,44.71,110.89,46.5,113.08,46.6Z" transform="translate(-25.42 -14.77)"/></g></g></svg>