<?xml version="1.0" encoding="utf-8"?>
<!-- Generator: Adobe Illustrator 23.0.6, SVG Export Plug-In . SVG Version: 6.00 Build 0)  -->
<svg version="1.1" id="Layer_1" xmlns="http://www.w3.org/2000/svg" xmlns:xlink="http://www.w3.org/1999/xlink" x="0px" y="0px"
	 viewBox="0 0 480 122.5" style="enable-background:new 0 0 480 122.5;" xml:space="preserve">
<style type="text/css">
	.st0{fill:#0BCC42;}
	.st1{fill:#332F2E;}
</style>
<g>
	<path class="st0" d="M83.8,44.89L68.44,91.18H52.59l-7.25-23.96l-7.16,23.96H22.34L8.21,47.75l16.03-4.58l6.68,27.97l6.39-26.25
		h16.32l6.87,26.25l6.01-26.25H83.8z"/>
	<path class="st0" d="M108.47,23.19c0,2.55-0.94,4.74-2.82,6.59c-1.88,1.85-4.12,2.77-6.73,2.77c-2.55,0-4.74-0.92-6.59-2.77
		c-1.85-1.84-2.77-4.04-2.77-6.59c0-2.61,0.92-4.85,2.77-6.73c1.84-1.88,4.04-2.82,6.59-2.82c2.61,0,4.85,0.94,6.73,2.82
		C107.53,18.34,108.47,20.58,108.47,23.19z"/>
	<path class="st0" d="M149.21,57.39c-1.02,0-2.45,0.27-4.29,0.81c-1.85,0.54-3.53,1.16-5.06,1.86v31.11h-17.37V44.89h10.31
		l3.05,4.77c6.74-4.2,13.04-6.3,18.9-6.3c5.6,0,9.8,1.64,12.6,4.92c2.8,3.28,4.2,7.62,4.2,13.03v29.87h-17.37V62.93
		c0-1.59-0.38-2.91-1.15-3.96C152.27,57.92,150.99,57.39,149.21,57.39z"/>
	<path class="st1" d="M195.46,45.46h8.4l2.86,6.97h-11.26v24.43c0,2.48,0.54,4.44,1.62,5.87c1.08,1.43,2.74,2.15,4.96,2.15
		c1.15,0,2.64-0.35,4.49-1.05l2.39,6.97c-0.95,0.51-2.18,0.97-3.67,1.38c-1.5,0.41-2.88,0.62-4.15,0.62
		c-4.58,0-8.19-1.26-10.83-3.77c-2.64-2.51-3.96-6.09-3.96-10.74V52.43h-6.49l-0.1-6.97h6.59V33.91l9.16-2.1V45.46z"/>
	<path class="st1" d="M235.83,43.65c6.68,0,11.72,2.24,15.13,6.73c3.4,4.49,5.11,10.23,5.11,17.23v2.48h-32.83
		c0.38,4.52,1.83,8.08,4.34,10.69c2.51,2.61,6.25,3.91,11.21,3.91c2.42,0,4.53-0.3,6.35-0.91c1.81-0.6,4.34-1.67,7.59-3.2l2.86,6.68
		c-5.6,3.37-11.2,5.06-16.8,5.06c-8.08,0-14.29-2.2-18.61-6.59c-4.33-4.39-6.49-10.31-6.49-17.75c0-4.77,0.89-9,2.67-12.69
		c1.78-3.69,4.34-6.55,7.68-8.59C227.39,44.67,231.31,43.65,235.83,43.65z M235.55,51.47c-3.5,0-6.28,1.1-8.35,3.29
		c-2.07,2.19-3.33,5.23-3.77,9.11h23.77C245.98,55.61,242.1,51.47,235.55,51.47z"/>
	<path class="st1" d="M282.03,54.67c-3.05,1.62-5.79,3.58-8.21,5.87v30.64h-9.16V44.89h5.15l2.96,7.54
		c2.16-1.84,4.72-3.56,7.68-5.15c2.96-1.59,5.55-2.39,7.78-2.39l2,7.35C287.82,52.24,285.08,53.05,282.03,54.67z"/>
	<path class="st1" d="M335.38,44.89l-17.56,46.29h-8.49l-17.18-44.76l8.78-3.24l12.79,35.12l12.22-33.41H335.38z"/>
	<path class="st1" d="M351.32,44.89v46.29h-9.26V44.89H351.32z"/>
	<path class="st1" d="M382.05,43.65c6.68,0,11.72,2.24,15.13,6.73c3.4,4.49,5.11,10.23,5.11,17.23v2.48h-32.83
		c0.38,4.52,1.83,8.08,4.34,10.69c2.51,2.61,6.25,3.91,11.21,3.91c2.42,0,4.53-0.3,6.35-0.91c1.81-0.6,4.34-1.67,7.59-3.2l2.86,6.68
		c-5.6,3.37-11.2,5.06-16.8,5.06c-8.08,0-14.29-2.2-18.61-6.59c-4.33-4.39-6.49-10.31-6.49-17.75c0-4.77,0.89-9,2.67-12.69
		c1.78-3.69,4.34-6.55,7.68-8.59C373.6,44.67,377.53,43.65,382.05,43.65z M381.76,51.47c-3.5,0-6.28,1.1-8.35,3.29
		c-2.07,2.19-3.33,5.23-3.77,9.11h23.77C392.2,55.61,388.32,51.47,381.76,51.47z"/>
	<path class="st1" d="M471.19,44.89l-14.41,46.29h-8.4l-10.21-32.93l-9.64,32.93h-8.4L406.1,46.51l8.78-3.25l9.54,34.26l9.07-32.64
		h9.64l9.54,32.64l9.07-32.64H471.19z"/>
</g>
<path class="st0" d="M356.27,29.13c0,2.55-0.94,4.74-2.82,6.59c-1.88,1.85-4.12,2.77-6.73,2.77c-2.55,0-4.74-0.92-6.59-2.77
	c-1.85-1.84-2.77-4.04-2.77-6.59c0-2.61,0.92-4.85,2.77-6.73c1.84-1.88,4.04-2.82,6.59-2.82c2.61,0,4.85,0.94,6.73,2.82
	C355.33,24.28,356.27,26.52,356.27,29.13z"/>
<g id="ILcz48.tif">
	<g>
		<path class="st0" d="M99.33,38.98c2.52,0,6.45-1.96,7.69-2.03c0.11-0.01,0.45-0.03,0.56,0.16c0.07,0.11,0.01,0.3-0.14,0.62
			c-1.24,2.7-2.45,5.41-3.69,8.11c-0.24,0.53-0.33,1.01-0.2,1.62c2.5,11.82,4.97,23.65,7.45,35.48c0.52,2.47,1.03,4.94,1.54,7.41
			c0.1,0.48,0.16,0.9-0.18,1.33c-4.2,5.34-8.39,10.68-12.56,16.04c-0.43,0.55-0.66,0.52-1.06-0.01
			c-4.17-5.36-8.36-10.71-12.55-16.04c-0.32-0.4-0.29-0.79-0.19-1.24c1.82-8.63,3.63-17.26,5.45-25.88
			c1.2-5.7,2.38-11.39,3.58-17.09c0.12-0.55,0.08-1.01-0.16-1.53c-1.25-2.69-2.46-5.4-3.68-8.11c-0.2-0.44-0.28-0.67-0.21-0.79
			c0.12-0.18,0.46-0.16,0.7-0.13C93.39,37.13,96.87,38.99,99.33,38.98z"/>
	</g>
</g>
</svg>
